<?xml version="1.0" encoding="UTF-8" standalone="no"?>
<svg
   xmlns:dc="http://purl.org/dc/elements/1.1/"
   xmlns:cc="http://creativecommons.org/ns#"
   xmlns:rdf="http://www.w3.org/1999/02/22-rdf-syntax-ns#"
   xmlns:svg="http://www.w3.org/2000/svg"
   xmlns="http://www.w3.org/2000/svg"
   id="svg969"
   version="1.1"
   viewBox="0 0 25.135417 25.135417"
   height="95"
   width="95">
  <defs
     id="defs963" />
  <metadata
     id="metadata966">
    <rdf:RDF>
      <cc:Work
         rdf:about="">
        <dc:format>image/svg+xml</dc:format>
        <dc:type
           rdf:resource="http://purl.org/dc/dcmitype/StillImage" />
        <dc:title></dc:title>
      </cc:Work>
    </rdf:RDF>
  </metadata>
  <g
     transform="translate(0,-271.86457)"
     id="layer1">
    <g
       id="text1516"
       style="font-style:normal;font-variant:normal;font-weight:600;font-stretch:normal;font-size:35.27777863px;line-height:30.64999962;font-family:'Open Sans';-inkscape-font-specification:'Open Sans, Semi-Bold';font-variant-ligatures:normal;font-variant-caps:normal;font-variant-numeric:normal;font-feature-settings:normal;text-align:start;letter-spacing:0px;word-spacing:0px;writing-mode:lr-tb;text-anchor:start;opacity:1;fill:#000000;fill-opacity:1;stroke:#ffffff;stroke-width:0.5291667;stroke-linecap:round;stroke-linejoin:miter;stroke-miterlimit:4;stroke-dasharray:0.13229167, 0.13229167;stroke-dashoffset:0;stroke-opacity:0.98536586;paint-order:normal"
       transform="matrix(-0.33705183,0,0,0.32319988,32.60249,248.76942)"
       aria-label="-?">
      <path
         d="m 64.699581,115.78521 v -1.10243 q 0,-1.8948 0.689019,-3.15226 0.689019,-1.25746 2.411567,-2.60105 2.049832,-1.61919 2.635498,-2.51492 0.602892,-0.89572 0.602892,-2.13595 0,-1.44694 -0.964627,-2.22209 -0.964627,-0.77515 -2.773302,-0.77515 -1.636421,0 -3.031684,0.46509 -1.395264,0.46509 -2.721626,1.11966 l -1.44694,-3.031688 q 3.496772,-1.946479 7.493083,-1.946479 3.376194,0 5.357124,1.653646 1.98093,1.653641 1.98093,4.564751 0,1.29191 -0.378961,2.30821 -0.378961,0.99908 -1.154107,1.91203 -0.757921,0.91295 -2.635498,2.37712 -1.60197,1.25746 -2.153185,2.08428 -0.53399,0.82682 -0.53399,2.22209 v 0.77514 z m -0.706245,5.49493 q 0,-2.60105 2.532145,-2.60105 1.240235,0 1.894803,0.68902 0.654568,0.6718 0.654568,1.91203 0,1.22301 -0.671794,1.94648 -0.654568,0.70625 -1.877577,0.70625 -1.223009,0 -1.877577,-0.68902 -0.654568,-0.70625 -0.654568,-1.96371 z m -10.857563,-5.58105 v -3.4451 h 8.853895 v 3.4451 z m 29.70414,27.52638 c 2.261138,-1.28524 0.342627,-29.11521 0.360148,-31.71604 0.01793,-2.60082 2.310781,-30.402417 0.06719,-31.718001 C 81.023638,78.475845 57.88143,94.052306 55.620292,95.337544 53.359154,96.622783 28.13563,108.53756 28.11811,111.13838 c -0.01753,2.60083 25.043192,14.85433 27.286809,16.16992 2.243627,1.31558 25.173886,17.2024 27.435024,15.91717 z"
         style="font-style:normal;font-variant:normal;font-weight:600;font-stretch:normal;font-size:35.27777863px;font-family:'Open Sans';-inkscape-font-specification:'Open Sans, Semi-Bold';font-variant-ligatures:normal;font-variant-caps:normal;font-variant-numeric:normal;font-feature-settings:normal;text-align:start;writing-mode:lr-tb;text-anchor:start;stroke:#ffffff;stroke-width:0.5291667;stroke-linecap:round;stroke-linejoin:miter;stroke-miterlimit:4;stroke-dasharray:0.13229167, 0.13229167;stroke-dashoffset:0;stroke-opacity:0.98536586;paint-order:normal"
         id="path1523" />
    </g>
  </g>
</svg>
